<svg width="20" height="20" viewBox="0 0 20 20" fill="none" xmlns="http://www.w3.org/2000/svg">
<path d="M4.64264 6.57251C4.40389 5.00001 5.51264 3.58751 7.20639 3.07001C7.50696 2.97811 7.83126 3.00427 8.11321 3.14316C8.39517 3.28205 8.61356 3.52321 8.72389 3.81751L9.26764 5.26751C9.35517 5.50078 9.371 5.75488 9.31309 5.99721C9.25519 6.23953 9.12618 6.45902 8.94264 6.62751L7.32514 8.10876C7.24541 8.18193 7.186 8.27451 7.1527 8.37747C7.1194 8.48043 7.11335 8.59026 7.13514 8.69626L7.15014 8.76126L7.18889 8.92376C7.39005 9.71332 7.69655 10.4722 8.10014 11.18C8.53978 11.9321 9.08537 12.6171 9.72014 13.2138L9.77014 13.2588C9.85089 13.3304 9.94883 13.38 10.0544 13.4025C10.16 13.4251 10.2696 13.4199 10.3726 13.3875L12.4639 12.7288C12.7016 12.6541 12.9561 12.6522 13.1949 12.7233C13.4336 12.7943 13.6457 12.9351 13.8039 13.1275L14.7939 14.3288C15.2064 14.8288 15.1564 15.5638 14.6826 16.005C13.3864 17.2138 11.6039 17.4613 10.3639 16.465C8.84393 15.239 7.56258 13.7436 6.58389 12.0538C5.59725 10.3652 4.93822 8.50555 4.64139 6.57251H4.64264ZM8.44639 8.77876L9.78639 7.54876C10.1537 7.21193 10.4119 6.77301 10.528 6.28835C10.644 5.8037 10.6126 5.29541 10.4376 4.82876L9.89514 3.37876C9.67307 2.78657 9.23356 2.30134 8.66616 2.02194C8.09876 1.74253 7.44618 1.68999 6.84139 1.87501C4.73764 2.51876 3.04889 4.40501 3.40639 6.76126C3.65639 8.40626 4.23264 10.4988 5.50389 12.6838C6.55978 14.5059 7.94196 16.1182 9.58139 17.44C11.4414 18.9338 13.9239 18.4238 15.5364 16.9213C16.4939 16.0288 16.5914 14.5463 15.7601 13.5363L14.7701 12.3338C14.4534 11.9494 14.0291 11.6683 13.5516 11.5267C13.0741 11.385 12.5652 11.3892 12.0901 11.5388L10.3539 12.085C9.9056 11.6228 9.51294 11.1097 9.18389 10.5563C8.86604 9.99671 8.61835 9.40014 8.44639 8.78001V8.77876Z" fill="black"/>
</svg>
