<svg width="19" height="19" viewBox="0 0 19 19" fill="none" xmlns="http://www.w3.org/2000/svg">
<path d="M16.889 3.16669H2.11122C1.83127 3.16669 1.56278 3.2779 1.36483 3.47585C1.16687 3.67381 1.05566 3.94229 1.05566 4.22224V14.7778C1.05566 15.0577 1.16687 15.3262 1.36483 15.5242C1.56278 15.7221 1.83127 15.8334 2.11122 15.8334H16.889C17.1689 15.8334 17.4374 15.7221 17.6354 15.5242C17.8333 15.3262 17.9446 15.0577 17.9446 14.7778V4.22224C17.9446 3.94229 17.8333 3.67381 17.6354 3.47585C17.4374 3.2779 17.1689 3.16669 16.889 3.16669ZM16.0762 14.7778H2.98733L6.68177 10.9567L5.92177 10.2231L2.11122 14.1656V5.02446L8.6715 11.5531C8.86927 11.7497 9.1368 11.86 9.41566 11.86C9.69453 11.86 9.96206 11.7497 10.1598 11.5531L16.889 4.86085V14.097L13.0046 10.2125L12.2604 10.9567L16.0762 14.7778ZM2.80261 4.22224H16.034L9.41566 10.8036L2.80261 4.22224Z" fill="black"/>
</svg>
