<svg width="20" height="20" viewBox="0 0 20 20" fill="none" xmlns="http://www.w3.org/2000/svg">
<path d="M10.0003 11.6667C11.8387 11.6667 13.3337 10.1717 13.3337 8.33333C13.3337 6.495 11.8387 5 10.0003 5C8.16199 5 6.66699 6.495 6.66699 8.33333C6.66699 10.1717 8.16199 11.6667 10.0003 11.6667ZM10.0003 6.66667C10.9195 6.66667 11.667 7.41417 11.667 8.33333C11.667 9.2525 10.9195 10 10.0003 10C9.08116 10 8.33366 9.2525 8.33366 8.33333C8.33366 7.41417 9.08116 6.66667 10.0003 6.66667Z" fill="black"/>
<path d="M9.51642 18.1784C9.65745 18.2791 9.82644 18.3332 9.99975 18.3332C10.1731 18.3332 10.342 18.2791 10.4831 18.1784C10.7364 17.9992 16.6906 13.7 16.6664 8.33335C16.6664 4.65752 13.6756 1.66669 9.99975 1.66669C6.32391 1.66669 3.33308 4.65752 3.33308 8.32919C3.30891 13.7 9.26308 17.9992 9.51642 18.1784ZM9.99975 3.33335C12.7572 3.33335 14.9997 5.57585 14.9997 8.33752C15.0172 12.0359 11.3431 15.3567 9.99975 16.4459C8.65725 15.3559 4.98225 12.0342 4.99975 8.33335C4.99975 5.57585 7.24225 3.33335 9.99975 3.33335Z" fill="black"/>
</svg>
