<svg width="28" height="28" viewBox="0 0 28 28" fill="none" xmlns="http://www.w3.org/2000/svg">
<path d="M1.76628 1.8803C-0.355474 4.08417 0.0787764 6.4253 0.0787764 13.5375C0.0787764 19.4438 -0.951724 25.3647 4.44153 26.7585C6.12565 27.1917 21.0477 27.1917 22.7295 26.7563C24.975 26.1769 26.802 24.3555 27.0518 21.1797C27.0867 20.7364 27.0867 6.34655 27.0507 5.8943C26.7852 2.51142 24.7028 0.561799 21.9589 0.166924C21.33 0.0757986 21.204 0.0487985 17.9775 0.0431735C6.5329 0.0487985 4.02415 -0.460827 1.76628 1.8803Z" fill="#A9A9A9"/>
<path d="M13.5757 3.57407C9.49079 3.57407 5.61179 3.2107 4.13017 7.0132C3.51817 8.5837 3.60704 10.6233 3.60704 13.5438C3.60704 16.1066 3.52492 18.5152 4.13017 20.0733C5.60842 23.8781 9.51892 23.5136 13.5734 23.5136C17.485 23.5136 21.5182 23.9208 23.0178 20.0733C23.6309 18.4871 23.5409 16.4778 23.5409 13.5438C23.5409 9.64908 23.7558 7.1347 21.8669 5.24695C19.9544 3.33445 17.368 3.57407 13.5712 3.57407H13.5757ZM12.6824 5.3707C21.2032 5.3572 22.2877 4.40995 21.6892 17.5691C21.4765 22.2232 17.9328 21.7125 13.5768 21.7125C5.63429 21.7125 5.40592 21.4852 5.40592 13.5393C5.40592 5.5012 6.03592 5.3752 12.6824 5.36845V5.3707ZM18.8969 7.02557C18.2365 7.02557 17.701 7.56107 17.701 8.22145C17.701 8.88182 18.2365 9.41733 18.8969 9.41733C19.5573 9.41733 20.0928 8.88182 20.0928 8.22145C20.0928 7.56107 19.5573 7.02557 18.8969 7.02557ZM13.5757 8.42395C10.7485 8.42395 8.45692 10.7167 8.45692 13.5438C8.45692 16.371 10.7485 18.6626 13.5757 18.6626C16.4028 18.6626 18.6933 16.371 18.6933 13.5438C18.6933 10.7167 16.4028 8.42395 13.5757 8.42395ZM13.5757 10.2206C17.9688 10.2206 17.9744 16.8671 13.5757 16.8671C9.18366 16.8671 9.17691 10.2206 13.5757 10.2206Z" fill="white"/>
</svg>
